<?xml version="1.0" encoding="iso-8859-1"?>
<!-- Generator: Adobe Illustrator 18.1.1, SVG Export Plug-In . SVG Version: 6.00 Build 0)  -->
<svg version="1.1" id="Capa_1" xmlns="http://www.w3.org/2000/svg" xmlns:xlink="http://www.w3.org/1999/xlink" x="0px" y="0px"
	 viewBox="0 0 1024.497 1024.497" style="enable-background:new 0 0 1024.497 1024.497;" xml:space="preserve">
<g>
	<path d="M512.249,307.129c-113.106,0-205.119,92.013-205.119,205.119c0,113.106,92.013,205.119,205.119,205.119
		s205.119-92.013,205.119-205.119C717.368,399.143,625.355,307.129,512.249,307.129z M512.249,657.104
		c-79.866,0-144.854-64.981-144.854-144.855c0-79.874,64.988-144.855,144.854-144.855s144.855,64.98,144.855,144.855
		C657.104,592.123,592.115,657.104,512.249,657.104z"/>
	<path d="M994.365,482.279h-96.017c-14.658-190-166.16-341.464-356.16-356.122V30.132c0-16.643-13.364-30.132-30-30.132
		c-16.635,0-30,13.489-30,30.132v96.025c-190,14.657-341.381,166.122-356.04,356.122H30.133c-16.636,0-30.132,13.357-30.132,30
		s13.497,30,30.132,30h96.017c14.658,190,166.04,341.404,356.04,356.062v96.025c0,16.643,13.365,30.132,30,30.132
		c16.636,0,30-13.489,30-30.132v-96.025c190-14.657,341.501-166.062,356.16-356.062h96.017c16.635,0,30.132-13.357,30.132-30
		S1011.001,482.279,994.365,482.279z M512.249,839.239c-180.307,0-326.998-146.691-326.998-326.99s146.691-326.99,326.998-326.99
		s326.998,146.691,326.998,326.99S692.556,839.239,512.249,839.239z"/>
</g>
<g>
</g>
<g>
</g>
<g>
</g>
<g>
</g>
<g>
</g>
<g>
</g>
<g>
</g>
<g>
</g>
<g>
</g>
<g>
</g>
<g>
</g>
<g>
</g>
<g>
</g>
<g>
</g>
<g>
</g>
</svg>
